<svg width="100" height="100" viewBox="0 0 100 100" fill="none" xmlns="http://www.w3.org/2000/svg">
<path d="M13 22.6969C13.8621 23.0417 14.3988 25.5588 14.6131 26.349C15.6461 30.158 15.3229 34.3378 15.3229 38.2347C15.3229 41.4822 15.7875 44.5664 15.7875 47.7845" stroke="#333399" stroke-width="3" stroke-linecap="round"/>
<path d="M13 22C13.1781 23.4251 24.1052 23.2308 26.2407 22.6969" stroke="#333399" stroke-width="3" stroke-linecap="round"/>
<path d="M15.7876 36.1699C19.2091 36.1699 22.6044 36.4022 26.0085 36.4022" stroke="#333399" stroke-width="3" stroke-linecap="round"/>
<path d="M15.7876 50.3398C15.9758 51.0924 24.9717 50.5721 26.5892 50.5721C29.7424 50.5721 32.8956 50.5721 36.0487 50.5721C42.6201 50.5721 49.1493 50.5721 55.742 50.5721" stroke="#333399" stroke-width="3" stroke-linecap="round"/>
<path d="M36.2294 24.7875C40.6146 24.7875 44.9325 25.2521 49.2894 25.2521C50.9155 25.2521 52.9559 24.9264 54.5289 25.123C54.6223 25.1347 54.1878 25.7138 54.1676 25.7683C53.9964 26.2305 53.9544 26.6769 53.5997 27.0588C52.9546 27.7536 52.7367 28.7062 52.1415 29.4205C51.1243 30.6411 50.2523 32.0697 49.341 33.3953C47.7392 35.7252 45.868 37.8709 44.3467 40.2479C43.1243 42.158 41.6574 43.9128 40.5268 45.7971C39.9151 46.8166 39.0818 47.8187 38.0877 48.4814" stroke="#333399" stroke-width="3" stroke-linecap="round"/>
<path d="M37.9238 48.7654C37.6899 48.9245 37.4407 49.1078 37.2401 49.3084C37.1389 49.4096 37.0732 49.691 36.9686 49.7508C36.7529 49.8741 36.7689 50.2478 36.476 50.3943" stroke="#333399" stroke-width="3" stroke-linecap="round"/>
<path d="M15.4819 48.2225C15.4819 48.6562 15.7534 48.98 15.7534 49.3989" stroke="#333399" stroke-width="3" stroke-linecap="round"/>
<path d="M55.9542 50.6394C59.0138 50.6394 62.0608 50.3567 65.1284 50.3567C67.2345 50.3567 69.4696 50.5987 71.5377 50.2467C73.7132 49.8764 76.1719 49.9599 78.3869 49.9325C79.4059 49.9199 80.557 50.0898 81.5602 49.8618C82.2572 49.7034 84.8994 50.2267 85.079 49.5084" stroke="#333399" stroke-width="3" stroke-linecap="round"/>
<path d="M65.2855 25.0492C65.3742 26.9112 65.7112 28.9685 66.1338 30.7831C66.3715 31.8037 66.3646 32.8661 66.5894 33.8778C67.0261 35.8429 66.8407 37.9502 66.8407 39.9572C66.8407 42.9775 67.4063 45.9394 67.4063 48.9429" stroke="#333399" stroke-width="3" stroke-linecap="round"/>
<path d="M15.7545 69.2753C15.9296 70.2385 17.7441 70.8139 18.5507 70.8305C20.4423 70.8695 21.4499 69.4843 21.7475 67.6651C22.056 65.7802 20.8806 65.5807 19.4461 64.971C18.2289 64.4537 17.3416 64.3966 16.6028 65.5208C16.0375 66.3811 15.3938 67.4191 15.1418 68.427C14.9066 69.3678 15.0311 70.4814 15.0476 71.4432C15.0758 73.0953 16.1882 75.043 17.8909 75.4176C19.7033 75.8163 21.2485 75.2595 22.9728 74.7892C24.3393 74.4166 25.4865 74.1057 26.4995 73.0927" stroke="#00CC66" stroke-width="3" stroke-linecap="round"/>
<path d="M33.2858 65.8821C32.7068 65.8821 32.3633 66.989 32.1862 67.3588C31.0105 69.8143 30.4334 72.4456 32.6575 74.4986C33.3703 75.1566 34.3363 75.4136 35.2966 75.3548C36.4966 75.2813 37.0589 73.3825 37.5195 72.535C38.0203 71.6134 38.8556 70.5217 38.5641 69.4089C38.2517 68.2159 37.2525 67.1507 36.3963 66.3063C35.4262 65.3497 34.3155 64.9416 33.0031 65.3166" stroke="#00CC66" stroke-width="3" stroke-linecap="round"/>
<path d="M37.2445 66.8718C37.5572 70.1552 40.2307 73.5627 43.2611 74.7578C44.9932 75.4409 46.5661 73.1893 46.7171 71.6788" stroke="#00CC66" stroke-width="3" stroke-linecap="round"/>
<path d="M51.6655 63.4787C52.4355 64.5909 52.2311 66.716 52.2311 68.0029C52.2311 69.6471 52.2311 71.2913 52.2311 72.9356C52.2311 73.731 52.3065 74.5953 52.0111 75.3548C51.9231 75.5811 51.6812 75.8596 51.6812 76.1088C51.6812 76.1899 51.9324 75.6071 51.9483 75.4962" stroke="#00CC66" stroke-width="3" stroke-linecap="round"/>
<path d="M53.0795 69.9822C54.2494 69.8522 55.3231 68.3758 55.9071 67.5159C56.5484 66.5719 57.171 65.668 57.6351 64.6176C57.7717 64.3086 57.8672 63.636 58.0907 63.4001C58.401 63.0725 59.3054 62.8033 59.7323 62.6461C60.9248 62.2067 61.6375 62.8433 62.6935 63.0545" stroke="#00CC66" stroke-width="3" stroke-linecap="round"/>
<path d="M69.4797 64.0442C70.7686 67.5528 70.328 71.5477 70.328 75.2134" stroke="#00CC66" stroke-width="3" stroke-linecap="round"/>
<path d="M71.035 70.8305C71.2156 69.085 71.8122 67.3059 72.7945 65.8507C73.7175 64.4832 74.4475 63.2306 75.8342 62.2926C77.0868 61.4453 77.8923 62.6149 78.7168 63.5572C79.5689 64.531 80.254 65.5219 80.6569 66.7304C81.0501 67.91 81.2146 68.8965 81.2146 70.1393C81.2146 71.2574 81.0005 72.6494 81.356 73.7367C82.228 76.4041 84.675 73.0827 85.1733 71.9616" stroke="#00CC66" stroke-width="3" stroke-linecap="round"/>
</svg>
