<svg width="400" height="400" viewBox="0 0 400 400" fill="none" xmlns="http://www.w3.org/2000/svg">
<path d="M325 212V188L318 160L306.5 133.5L287.5 110.5L263 92.5L232.5 79.5L200.5 75L239 96.5L265 124.5L275.5 145.5L280 168.5V191.5L275.5 214.5L265 254L250 275L232.5 288.5L214.5 298.5L128 302L151 314.5L176 323L205.5 325.5L235.5 320.5L265 308L287.5 288.5L306.5 266L318 238.5L323 226L325 212Z" fill="black" stroke="black"/>
<path d="M173.5 136L178.552 151.547H194.899L181.674 161.156L186.725 176.703L173.5 167.094L160.275 176.703L165.326 161.156L152.101 151.547H168.448L173.5 136Z" fill="#EBFF00"/>
<path d="M230.5 181L235.552 196.547H251.899L238.674 206.156L243.725 221.703L230.5 212.094L217.275 221.703L222.326 206.156L209.101 196.547H225.448L230.5 181Z" fill="#EBFF00"/>
<path d="M173.5 215L178.552 230.547H194.899L181.674 240.156L186.725 255.703L173.5 246.094L160.275 255.703L165.326 240.156L152.101 230.547H168.448L173.5 215Z" fill="#EBFF00"/>
</svg>
